<?xml version="1.0" encoding="utf-8"?>
<!-- Generator: Adobe Illustrator 25.4.1, SVG Export Plug-In . SVG Version: 6.00 Build 0)  -->
<svg version="1.1" id="Слой_1" xmlns="http://www.w3.org/2000/svg" xmlns:xlink="http://www.w3.org/1999/xlink" x="0px" y="0px"
	 viewBox="0 0 400 164.94" style="enable-background:new 0 0 400 164.94;" xml:space="preserve">
<style type="text/css">
	.st0{fill:#819690;}
	.st1{font-family:'FiraSans-ExtraBold';}
	.st2{font-size:77.5443px;}
	.st3{fill:#819690;stroke:#819690;stroke-width:3;stroke-miterlimit:10;}
	.st4{fill:#FDFDFD;stroke:#819690;stroke-width:3;stroke-miterlimit:10;}
</style>
<text transform="matrix(1 0 0 1 141.7904 67.3332)" class="st0 st1 st2">English</text>
<text transform="matrix(1 0 0 1 141.7904 153.5417)" class="st0 st1 st2">Cards</text>
<path class="st3" d="M91.59,131.03l-38.63-12.88c-3.98-1.33-6.13-5.63-4.8-9.61l20.93-62.76c1.33-3.98,5.63-6.13,9.61-4.8
	l38.63,12.88c3.98,1.33,6.13,5.63,4.8,9.61l-20.93,62.76C99.87,130.21,95.57,132.36,91.59,131.03z"/>
<path class="st4" d="M81.3,114.48l-38.04,14.53c-3.92,1.5-8.31-0.47-9.81-4.39L9.84,62.82c-1.5-3.92,0.47-8.31,4.39-9.81
	l38.04-14.53c3.92-1.5,8.31,0.47,9.81,4.39l23.61,61.8C87.18,108.59,85.22,112.98,81.3,114.48z"/>
</svg>
