<?xml version="1.0" encoding="utf-8"?>
<!-- Generator: Adobe Illustrator 25.4.1, SVG Export Plug-In . SVG Version: 6.00 Build 0)  -->
<svg version="1.1" id="Layer_1" xmlns="http://www.w3.org/2000/svg" xmlns:xlink="http://www.w3.org/1999/xlink" x="0px" y="0px"
	 viewBox="0 0 2000 2000" style="enable-background:new 0 0 2000 2000;" xml:space="preserve">
<style type="text/css">
	.st0{fill:#5F6481;}
</style>
<g>
	<path class="st0" d="M953.2,1383.7c-29.8,0-53.9-24.1-53.9-53.9c0-70.5,10-131.4,29.9-182.6c14.6-38.6,38.3-77.5,70.9-116.8
		c24-28.6,67-70.4,129.2-125.2c62.2-54.9,102.6-98.6,121.3-131.2s27.9-68.2,27.9-106.8c0-69.9-27.3-131.2-81.8-184.1
		s-121.4-79.3-200.6-79.3c-76.5,0-140.4,24-191.6,71.9c-37.4,35-65.5,84.4-84.1,148.2c-12.8,43.8-55.5,71.8-100.8,66.4
		c-57.4-6.8-95.2-63.6-78.8-119.1c25.2-85.3,67.4-154,126.5-206.2c82.1-72.7,190.7-109,325.8-109c143,0,257.1,38.9,342.3,116.8
		s127.7,172,127.7,282.4c0,63.9-15,122.8-44.9,176.6c-29.9,53.9-88.5,119.4-175.6,196.6c-58.5,51.9-96.8,90.2-114.8,114.8
		s-31.3,52.9-39.9,84.8c-6.4,23.7-10.8,58.5-13.2,104.2c-1.5,28.8-25.4,51.4-54.2,51.4h-67.3L953.2,1383.7z M889.3,1641.7
		c0-56.5,45.8-102.3,102.3-102.3s102.3,45.8,102.3,102.3S1048.1,1744,991.6,1744S889.3,1698.2,889.3,1641.7L889.3,1641.7z"/>
</g>
</svg>
